<svg id="Capa_1" data-name="Capa 1" xmlns="http://www.w3.org/2000/svg" xmlns:xlink="http://www.w3.org/1999/xlink" viewBox="0 0 535.76 410.49"><defs><style>.cls-1{fill:none;}.cls-2{fill:#070308;}.cls-3{fill:#fff;}.cls-4{clip-path:url(#clip-path);}</style><clipPath id="clip-path" transform="translate(-33.61 -55.06)"><circle class="cls-1" cx="295.83" cy="260.65" r="204.29"/></clipPath></defs><title>gdmlogo</title><path class="cls-2" d="M340,198l94.25,213.51a204.7,204.7,0,0,0,66.48-151.21c0-113.36-91.9-205.25-205.25-205.25S90.24,147,90.24,260.31A204.7,204.7,0,0,0,158.4,413l101-215Z" transform="translate(-33.61 -55.06)"/><path class="cls-3" d="M434.26,411.52,340,198H259.39l-101,215a205.22,205.22,0,0,0,275.86-1.52Z" transform="translate(-33.61 -55.06)"/><g class="cls-4"><path class="cls-1" d="M262.82,348a6.58,6.58,0,0,1,3-.09c-.51-.78-.85-1.24-1.13-1.74-.67-1.21-.18-2.22.59-3.17.2-.26.52-.6.13-.87a3.86,3.86,0,0,0-1.54-.71c-.37-.06-.34.49-.37.81a4.27,4.27,0,0,1-1.32,2.95c-.79.72-.05,1.63,0,2.46A.44.44,0,0,0,262.82,348Z" transform="translate(-33.61 -55.06)"/><path class="cls-1" d="M343.94,365.33l1.2-.22a2.84,2.84,0,0,0,2.35-2.59c.28-1.44-.5-2.14-1.84-1.67a8.64,8.64,0,0,1-3.1.57c-.43,0-1,0-1.11.48-.33,1,.38,1.73.69,2.55C342.36,365.06,342.83,365.49,343.94,365.33Z" transform="translate(-33.61 -55.06)"/><path class="cls-1" d="M352.44,362.43a4.92,4.92,0,0,1,2.37,1.8c.27.4.56.41,1,.14a5.16,5.16,0,0,0,1.73-4.71c-1.79,2.35-1.79,2.35-4.76,1.87-.29,0-.63-.16-.78.15S352.14,362.31,352.44,362.43Z" transform="translate(-33.61 -55.06)"/><path class="cls-1" d="M358.35,376.34a5.42,5.42,0,0,1,2.42,1.5.77.77,0,0,0,1.05.11c.38-.25.75-.59.54-1.06a4.07,4.07,0,0,1,.1-2.59c-1.36,1.18-2,.14-2.71-.63-.38-.4-.59-1.29-1.18-1.09s-.43,1.08-.53,1.67c-.07.38-.11.77-.16,1.15S357.91,376.22,358.35,376.34Z" transform="translate(-33.61 -55.06)"/><path class="cls-1" d="M385.16,371.28c1.45.43,1.94-.17,2.25-1.2s.81-2.05,1.18-3.09c.16-.45.7-1,0-1.38a1.27,1.27,0,0,0-1.61.59c-.8,1.09-1.61,2.16-2.37,3.26-.43.62-1.38,1.24-1.1,1.89S384.77,371.06,385.16,371.28Z" transform="translate(-33.61 -55.06)"/><path class="cls-1" d="M395.67,320.37c.16-.45.7-1,0-1.38a1.09,1.09,0,0,0-1.28.23l.93,2.09C395.43,321,395.56,320.68,395.67,320.37Z" transform="translate(-33.61 -55.06)"/><path class="cls-1" d="M192.78,309.94c-2.95,3.18-6,6.5-7,10.82-1.28,5.15-2.1,10.41-1.29,15.77A44.71,44.71,0,0,1,185,341a11.43,11.43,0,0,0,1.87,5.42,26.35,26.35,0,0,0,1.58,2.28l21.28-45.21A66.78,66.78,0,0,0,198.25,306,12.7,12.7,0,0,0,192.78,309.94Z" transform="translate(-33.61 -55.06)"/><path class="cls-1" d="M356.7,371l-.21.29h56.79a2.58,2.58,0,0,1,0-.29Z" transform="translate(-33.61 -55.06)"/><path class="cls-1" d="M415.85,366.73a.55.55,0,0,0-.46-.21l.48,1.07A.62.62,0,0,0,415.85,366.73Z" transform="translate(-33.61 -55.06)"/><path class="cls-1" d="M409.45,353a57.22,57.22,0,0,1,.75-11.4,15,15,0,0,0,.13-2.6q0-9.49,0-19v-1.44l-.34-.15c-2.75,3.4-5.46,6.84-8.28,10.19l-2.1,2.48,9.82,22.1Z" transform="translate(-33.61 -55.06)"/><path class="cls-1" d="M350.31,371a2.64,2.64,0,0,1,0,.29h2.15c0-.1.06-.2.09-.29Z" transform="translate(-33.61 -55.06)"/><path class="cls-2" d="M210.21,326.78a2,2,0,0,0-.24.53c-.31,1-.89,1-1.64.47-1.14-.84-2.08-.44-3,.45-1.86,1.9-1.45,3.68,1.07,4.47.38.11.61.26.62.66a2.12,2.12,0,0,1-.44,1.62c-.2.22-.43,0-.62-.12s-.61-.86-1-.28c-.29.42.22.78.52,1.08a7.82,7.82,0,0,0,6.48,2.27c.61,0,1.24,0,1.86,0s1.1-.13,1.26-.77a1.13,1.13,0,0,0-.75-1.41c-1.81-.55-1.53-1.82-1.21-3.14.09-.4,0-1,.57-1s.62.52.77.9c1.23,3,3.79,3.2,6.52,3.11a1.52,1.52,0,0,0,1.37-1.15c.78-2.54.61-3.79-1.89-4.49-1.58-.44-3.13-.82-3.77-2.83C216.22,325.5,211.22,325.37,210.21,326.78Z" transform="translate(-33.61 -55.06)"/><path class="cls-2" d="M318.38,146.93l19.73,44.4h-75l20.9-44.4H80.22L33.61,371H178l4-8.43a33.06,33.06,0,0,0,11.5,6.41c2.07.67,4.19,1.12,6.25,1.83l.63.19H226a22.43,22.43,0,0,0,5.34-1.55c2.78-1.23,5.68-2.24,7.95-4.35.91-.84,1.52-2,2.38-2.9a6.91,6.91,0,0,0,1.72-3.74,37.38,37.38,0,0,0,.26-10.82c-.11-.94,0-2-1.18-2.4a3,3,0,0,0-3.59.76,6.26,6.26,0,0,1-2.53,1.75c-1.2.62-1.67-.33-2.24-1s-1.23-1.35-.33-2.25c.48-.47.84-1.16.51-1.7-.88-1.43-.36-2.38.77-3.28a2,2,0,0,0,.38-.61c.18-.32.3-.89.79-.61s.08.74-.18,1a2.46,2.46,0,0,0-.41,3.07c1.16,2,5.9,2.3,7.33.42a.76.76,0,0,0,.08-.11c.8-1.72-.29-3.58.38-5.31-1.14-1-.87-2.37-.93-3.64,0-1,.13-2-.58-2.91-.41-.52-.09-.91.56-.94s1.26.47,1.72-.27a3.5,3.5,0,0,0,.31-2c0-1.59-.35-1.83-2-1.91-1.37-.07-1.87.4-1.47,1.74,0,.14-.09.34-.15.53-3.36-2.18-3.56-2.26-6.25-2.26q-7.38,0-14.76,0a11.25,11.25,0,0,0-2,.23c-.82.17-.74.59-.24,1.1,1.36,1.41,2.47,1.52,4.08.35.31-.23.59-.51.9-.73s.85-.23.91.26c.14,1.05.71,2,.68,3.09-.1,3,2.25,4.51,5,3.26a1.41,1.41,0,0,1,2.11,1.37c0,1.31-.45,1.68-1.7,1.34a2.39,2.39,0,0,0-1.93.36c-.48.29-1.24.54-1,1.2s.93.3,1.43.36a3.61,3.61,0,0,0,.87,0c1.41-.17,1.67.43,1.51,1.78a70.07,70.07,0,0,0-.49,11.12c.13,2.92.13,3.17-2.52,4.42-.4.18-.82.3-1.22.48-2.72,1.21-5.66,1.07-8.52,1.41a69.6,69.6,0,0,1-10.8.53c-2.78-.1-5.26-1.15-7.86-1.87a19.41,19.41,0,0,1-10.52-7.18l21.28-45.21a30.74,30.74,0,0,1,4.3-.2c2.6.05,5.22.34,7.81.17a13.56,13.56,0,0,1,8.44,2.47,43.47,43.47,0,0,0,4.34,2.62c2.11,1,4.31,1.17,6.27-.43,2.18-1.8,2.52-4.69.92-7.34a17.35,17.35,0,0,0-4.41-4.55c-3.45-2.72-6.74-5.67-11.15-6.84-1.92-.52-3.9-.58-5.83-1h-3.59l43.26-91.91h79.75l53.77,121a35.33,35.33,0,0,1-3.93,4.19c-1.76,1.58-3.38,3.32-5.05,5-.44.45-.85.87-.55,1.65s.61,1.29,1.45,1.42a2.35,2.35,0,0,0,2.39-1c.48-.63.47-1.56,1.33-2.12.35,1-.06,2.14.69,2.83,1.08,1,1,1.59-.13,2.55-1.58,1.35-1.55,2.74-.3,4.42a2.33,2.33,0,0,1,.42.75c.11.32.17.73-.19.9s-.45-.26-.61-.48q-7.09-9.69-14.2-19.39a41.81,41.81,0,0,0-4-5.11,11.69,11.69,0,0,1-2.37-3.22,8.51,8.51,0,0,0-3.49-4.29,1,1,0,0,1-.54-.79,6.21,6.21,0,0,0-1.85-3.06,17.38,17.38,0,0,1-3.12-4.15,6.68,6.68,0,0,0-3.83-3.14,19.7,19.7,0,0,1-2.26-1,6.07,6.07,0,0,0-8,1.6,6.69,6.69,0,0,0-1.15,5.65,2.17,2.17,0,0,0,2.84,1.76.76.76,0,0,1,1,.64,1.71,1.71,0,0,1-.35,1.63c-.46.45-.76-.16-1.05-.41-.81-.74-1.89-1.08-2.66-2.15a12.63,12.63,0,0,0-.05,4.24,23.06,23.06,0,0,1,.42,6.2c-.63,4.41-.24,8.86-.53,13.28-.16,2.41,0,4.83-.11,7.25-.19,6.55-.64,13.1-.2,19.67,0,.49.05.92.6,1.2.81.41.63,1,.07,1.5a2.6,2.6,0,0,0-.86,1.93,47.42,47.42,0,0,0,.64,11.1,5.29,5.29,0,0,0,1.11,2.38h5.12a1.55,1.55,0,0,0,0-.22c-.05-.58-.25-1.13-.35-1.7s0-.77.58-.73a2,2,0,0,1,2,2.65h4.13a7.18,7.18,0,0,0,1.49-4.56,1.21,1.21,0,0,0-1-1.24,2.39,2.39,0,0,1-1.8-1.13c.65-.12,1.17-.22,1.69-.29a1.4,1.4,0,0,0,1.33-1.3,21.12,21.12,0,0,0,0-6.35,1.75,1.75,0,0,0-1.76-1.6,4.86,4.86,0,0,0-4.87,2.18,1.85,1.85,0,0,1-1.79,1c.73-.92,1.32-1.61,1.84-2.34s1.29-1.72,1-2.91c-.11-.41-.69-.92,0-1.25s1,.24,1.34.62a2.85,2.85,0,0,0,3.37,1c1.33-.55,1.07-1.8,1.2-2.86a6.81,6.81,0,0,0,0-1q-.29-8-.58-15.92a2.06,2.06,0,0,0-.59-1.73c-1.07-.8-1.24-2-1.67-3.13-.33-.87-.1-1.47.82-1.6,1.28-.19,1.52-1,1.43-2.08,0-.62-.1-1.25-.11-1.88,0-1.59-.06-3.18,0-4.77a1.08,1.08,0,0,1,.51-1c.33-.19.55.05.72.28,1.39,1.83,2.78,3.66,4.21,5.56-1.38.13-1.58.07-2.16-.87a5.16,5.16,0,0,0-1.54-1.71c-.27-.17-.61-.42-.92-.16s-.05.65.11.92c.78,1.33,1.58,2.65,2.38,4,1.91,3.14,3.76,6.3,5.74,9.39,1.06,1.66,3.83,2.89,5.15,2.1s3.16-.69,4.57-2.15c-1.19,2.47-1.11,2.73.6,2.83-.12.52-.24,1-.34,1.55-.08.37-.05.82-.54.91s-.58-.29-.77-.55a3.19,3.19,0,0,0-3.37-1.18,5.66,5.66,0,0,1-3-.24,26.29,26.29,0,0,0,2.57,4.64c.94,1.48,1.7,1.62,3.26.73.29-.16.52-.44.91-.21a2.51,2.51,0,0,1,.45,3,2.32,2.32,0,0,0,.17,3.38,7.2,7.2,0,0,0,5.59,1.94,2.2,2.2,0,0,0,2.17-1.78c.61-2.34,1.58-3.23,4-3.33a2.33,2.33,0,0,0,2.44-2.31c.11-.71-.09-1.5.39-2.11,1.67-2.06,3.17-4.29,4.89-6.26,1.2-1.36,2.37-2.74,3.53-4.12l9.82,22.1c.08,4,0,8.07,0,12.1a8.44,8.44,0,0,0,.5,3.42c.31.73,1.06,1.24,1.56.57.89-1.22,2.51-1.24,3.38-2.37a.83.83,0,0,1,.52-.35l.48,1.07c-.05.06-.09.12-.14.17a15,15,0,0,1-1.43,1.44,2.49,2.49,0,0,0-1,1.78H514l55.41-224Zm36.19,169a2.84,2.84,0,0,1-2.35,2.58l-1.21.23c-1.1.16-1.57-.27-1.8-.88-.31-.83-1-1.58-.7-2.55.16-.47.69-.5,1.12-.48a8.64,8.64,0,0,0,3.1-.57C354.07,313.76,354.85,314.45,354.57,315.9Zm8.28,1.85c-.4.27-.69.25-1-.15a4.88,4.88,0,0,0-2.38-1.79c-.3-.12-.66-.35-.46-.76s.49-.18.78-.14c3,.48,3,.48,4.76-1.87A5.15,5.15,0,0,1,362.85,317.75Zm6.59,12.52c.21.47-.17.81-.54,1.06a.79.79,0,0,1-1.06-.12,5.37,5.37,0,0,0-2.41-1.49c-.44-.12-.53-.53-.47-1s.09-.76.15-1.14c.11-.6-.05-1.47.54-1.67s.8.69,1.18,1.09c.73.76,1.35,1.81,2.71.62A4,4,0,0,0,369.44,330.27Zm25.05-6.82c-.31,1-.8,1.64-2.25,1.21-.39-.22-1.31.87-1.66.06-.27-.65.68-1.27,1.1-1.88.77-1.1,1.58-2.18,2.37-3.26a2.28,2.28,0,0,1,.33-.36l.93,2.09C395,322,394.72,322.73,394.49,323.45Z" transform="translate(-33.61 -55.06)"/><path class="cls-2" d="M305.11,369.53a4.64,4.64,0,0,0,3.1-.51,42.31,42.31,0,0,0,12.86-9.95c1.67-1.93,3.09-4.08,4.59-6.15s2.76-4.44,4.23-6.58,1.93-4.8,2.7-7.24a22,22,0,0,0,.5-8.63,3.28,3.28,0,0,0-1.65-3.07c1.68-.16,1.49-1.18,1.54-2.09a10.24,10.24,0,0,0-.35-2.86,39.35,39.35,0,0,0-3.5-8.4,50,50,0,0,0-20.92-21.65,6.81,6.81,0,0,0-3-.84c-2.36-.14-4.79.38-7.1-.56a1,1,0,0,0-.43,0c-6,0-12.07-.1-18.09.35a2.34,2.34,0,0,0-1.51.76c-.25.23-.58.54-.76,0-.28-.9-1-.79-1.67-.78-2.16.05-4.34.27-6.5.16a14.4,14.4,0,0,0-4.3.37,4.32,4.32,0,0,0-3,2.94,53,53,0,0,0-1.45,5.53,9,9,0,0,0,.17,5.38.75.75,0,0,1-.27.63c-1.4,1.08-1.49,2.69-1.54,4.21-.16,5.44-.22,10.88-.28,16.32,0,.7-.32,1.74.34,2s1.25-.7,1.73-1.22c.81-.88,1.53-1.12,2.4-.14a2.33,2.33,0,0,0,.6.4c1.41.73,1.61,2.2.17,2.79s-2.43,2.51-4.45,1.71c-.41-.16-.64.38-.69.76-.08.67-.11,1.35-.13,2-.11,3.15.27,6.27.3,9.41,0,5.4,0,10.8,0,16.21a6,6,0,0,0,.47,2.68,2.58,2.58,0,0,0,1.24,1.36c1.4.64,1.45.72.09,1.57-.91.57-.73,1.05-.26,1.75a5.54,5.54,0,0,0,6.33,1.91,5.37,5.37,0,0,1,3.9-.1,21.86,21.86,0,0,0,5.18,1.05h7.86c.73-.18.81-.75.48-1.53a1.7,1.7,0,0,0-1.44-1.06,1.65,1.65,0,0,1-1.37-1.13c-.86-2.07-1.43-2.43-3.61-2.16a1.42,1.42,0,0,1-1.73-.91c-.63-1.57-1.64-2.5-3.47-2-.28.07-.63.09-.69-.29s.28-.56.62-.65a4.61,4.61,0,0,0,1.65-.47c1.72-1.35,2.93.32,4.36.64.18,0,.3.46.39.73.59,1.71,1.38,2.46,3.05,2.13s2.44.45,3,1.88a8.77,8.77,0,0,1,.43,2.26c.12,1.33.85,2.38,2.17,2.22a15.66,15.66,0,0,1,4.17.37h8.34a4,4,0,0,0,.54-.29A6,6,0,0,1,305.11,369.53Zm-35.85-71a4.29,4.29,0,0,0,1.32-2.94c0-.32,0-.87.37-.82a4.09,4.09,0,0,1,1.54.72c.39.27.07.61-.14.86-.76,1-1.25,2-.58,3.18.28.5.62,1,1.13,1.74a6.59,6.59,0,0,0-3,.08.43.43,0,0,1-.65-.35C269.21,300.18,268.47,299.27,269.26,298.54Zm-2.75,50.12a2,2,0,0,1-1.84,1.19,1.91,1.91,0,0,1-1.75-.81c-.25-.35-.47-.73-.69-1.1-1-1.66-1-1.51.89-1.91a2.47,2.47,0,0,1,3,.94C266.46,347.5,266.89,348,266.51,348.66Zm29.92,11.06a7,7,0,0,1-3.32,2c-.87.27-1.72-.69-2.59-1-.66-.26.16-1.16.24-1.79s.61-.92,1.3-.75a3.84,3.84,0,0,0,2.95-.33c.32-.19.79-.34.73-.8s-.57-.43-.94-.45c-.53,0-1.06,0-1.59,0-6.09,0-12.17-.08-18.25.28-1,.06-2,.18-3,.31-2.42.3-2.89,0-4-2.43.8.19,1.07.76,1.51,1.11.29.24.54.65,1,.44s.43-.62.44-1c0-.87.08-1.74.05-2.6-.17-4,.18-7.92.26-11.88,0-.48,0-1,0-1.45,0-2-.13-2.12-2-1.54a.37.37,0,0,1,.09-.61c1.75-1.09,1.81-2.88,1.85-4.61.08-3.75.2-7.51-.7-11.2a12.69,12.69,0,0,0-.45-1.22c-.11-.27-.29-.61.12-.71,1.12-.29,1-1.22,1-2a48.47,48.47,0,0,0-.66-8.5c-.33-1.6-.26-3.26-.64-4.87-.25-1.07.55-1.17,1.34-1.14,2.8.1,5.6.28,8.39.3,5.6.05,11.2,0,17,0a4.93,4.93,0,0,0-2.54-1.8c-.39-.1-1.09-.22-.87-.72.31-.69.83-.05,1.18.15a3.45,3.45,0,0,0,3.19.32c.3-.13.65-.32.94,0a.67.67,0,0,1-.06.93c-1.13,1.31.07,1.4.82,1.32,2.49-.28,4.2.83,6.16,2.32,4.63,3.54,7.7,8.2,10.66,13,.55.9,1,1.87,1.52,2.8a12.49,12.49,0,0,1,1.66,6.95,16.24,16.24,0,0,0,0,3c.59,4.67-1.38,8.43-4.09,12a29.41,29.41,0,0,0-3.64,5.58,8.16,8.16,0,0,1-3,3.46c-2.45,1.6-4.72,3.47-7.72,4.14A7.34,7.34,0,0,0,296.43,359.72Z" transform="translate(-33.61 -55.06)"/><path class="cls-3" d="M186.88,346.4A11.43,11.43,0,0,1,185,341a44.71,44.71,0,0,0-.56-4.45c-.81-5.36,0-10.62,1.29-15.77,1.07-4.32,4.09-7.64,7-10.82a12.7,12.7,0,0,1,5.47-3.95,66.78,66.78,0,0,1,11.49-2.52l7.1-15.08h-9.46c-2.91.66-5.81,1.37-8.74,2a23.38,23.38,0,0,0-10.48,5c-.29.24-.76.46-.68.87s.65.25,1,.34.64.11.59.48-.42.31-.7.34a1,1,0,0,1-.43,0c-2.26-.83-3.71.58-5,2-4.77,5.24-9.06,10.8-11.27,17.68-1.08,3.38-.95,7-1.71,10.41-.1.42-.2.84-.29,1.26v6.38a27.78,27.78,0,0,1,.85,5.12,24.87,24.87,0,0,0,2.06,9.7,37.31,37.31,0,0,0,9.32,12.66l6.54-13.87A26.35,26.35,0,0,1,186.88,346.4Z" transform="translate(-33.61 -55.06)"/><path class="cls-3" d="M423.39,328.9c-.12-8.35.28-16.71-.26-25.06a5.42,5.42,0,0,1,.57-2.35c.8-1.93,1.39-4,.5-6A27.76,27.76,0,0,0,422,291.6a6.05,6.05,0,0,0-8.87-1.53c-1.06.79-2.4,1.7-1.25,3.41a.77.77,0,0,1,0,.56c-.5,1.66-.9,3.31-2.31,4.57-2.49,2.22-3.89,5.4-6.5,7.53a1,1,0,0,0-.16.24c-.89,1.37-.6,2.14,1,2.46a5.26,5.26,0,0,0,1.43.05c1.3-.11,2.59-.27,3.89-.4.32,0,.81-.15.86.26.07.58-.49.44-.84.48s-.77,0-1.15.07a3,3,0,0,0-2.75,3.43c.09,1.46-.17,1.63-1.57,1.15-.65-.22-.82-.74-1-1.28-.68-1.77-1.29-1.92-2.71-.7-.73.63-1.34,1.58-2.26,1.76a4.17,4.17,0,0,0-2.71,2c-.44.64-.91,1.26-1.4,1.87l.76,1.7a1.09,1.09,0,0,1,1.28-.23c.71.36.17.93,0,1.38s-.24.63-.36.94l4.32,9.74,2.1-2.48c2.82-3.35,5.53-6.79,8.28-10.19l.34.15V320q0,9.5,0,19a15,15,0,0,1-.13,2.6,57.22,57.22,0,0,0-.75,11.4v.19l5.94,13.37a.55.55,0,0,1,.46.21.62.62,0,0,1,0,.86l1.47,3.32h5.43a7.73,7.73,0,0,0,1.39-4.27,153.67,153.67,0,0,0-.08-19.67C423.51,340.94,423.47,334.93,423.39,328.9Z" transform="translate(-33.61 -55.06)"/></g><polygon class="cls-3" points="284.7 92.86 249.91 92.86 228.78 137.74 304.64 137.74 284.7 92.86"/></svg>